<svg width="1230" height="494" viewBox="0 0 1230 494" fill="none" xmlns="http://www.w3.org/2000/svg">
<rect width="1230" height="494" rx="8" fill="#D3EBF9"/>
<path d="M516.056 425.052L725.194 424.088L780.942 424.074H799.409L855.263 424.061L1110.43 423.998C1110.43 423.998 1168.8 357.543 1106.45 294.424C1041.81 228.977 1010.39 282.269 990.516 190.156C940.502 -41.714 446.025 93.2406 575.722 290.553C622.421 361.599 483.798 323.837 516.056 425.052Z" fill="#EBF3FA"/>
<g opacity="0.5">
<path opacity="0.5" d="M885.81 424.107H599.087V176.211C599.094 170.949 601.187 165.904 604.906 162.183C608.625 158.462 613.667 156.368 618.926 156.361H869.147C873.564 156.363 877.799 158.119 880.923 161.243C884.047 164.366 885.805 168.603 885.81 173.022V424.107ZM603.596 419.595H881.289V173.022C881.285 169.801 880.005 166.713 877.729 164.435C875.452 162.158 872.366 160.877 869.147 160.873H618.926C614.862 160.878 610.965 162.495 608.091 165.371C605.218 168.246 603.601 172.145 603.596 176.211V419.595Z" fill="#C8DBF4"/>
<path opacity="0.5" d="M883.544 208.336H601.341V213.354H883.544V208.336Z" fill="#C8DBF4"/>
<path opacity="0.5" d="M883.544 248.742H601.341V253.76H883.544V248.742Z" fill="#C8DBF4"/>
<path opacity="0.5" d="M883.544 289.148H601.341V294.166H883.544V289.148Z" fill="#C8DBF4"/>
<path opacity="0.5" d="M883.544 329.701H601.341V334.72H883.544V329.701Z" fill="#C8DBF4"/>
<path opacity="0.5" d="M662.895 329.699H669.943V303.46H662.895V329.699Z" fill="#C8DBF4"/>
<path opacity="0.5" d="M655.144 329.701H661.25V301.183H655.144V329.701Z" fill="#C8DBF4"/>
<path opacity="0.5" d="M645.602 329.237L651.663 329.979L655.121 301.671L649.061 300.93L645.602 329.237Z" fill="#D2E3FC"/>
<path opacity="0.5" d="M859.8 329.699H866.846V303.46H859.8V329.699Z" fill="#C8DBF4"/>
<path opacity="0.5" d="M852.05 329.701H858.156V301.183H852.05V329.701Z" fill="#C8DBF4"/>
<path opacity="0.5" d="M842.503 329.253L848.563 329.994L852.022 301.687L845.962 300.945L842.503 329.253Z" fill="#D2E3FC"/>
<path opacity="0.5" d="M611.27 329.701H640.084V324.57H611.27V329.701Z" fill="#95C0F4"/>
<path opacity="0.5" d="M607.747 324.568H636.562V321.038H607.747V324.568Z" fill="#B7D3F3"/>
<path opacity="0.5" d="M610.58 321.041H638.206V317.511H610.58V321.041Z" fill="#D2E3FC"/>
<path opacity="0.5" d="M609.91 317.511H634.859V314.816H609.91V317.511Z" fill="#C8DBF4"/>
<path opacity="0.5" d="M749.58 329.701H778.394V324.57H749.58V329.701Z" fill="#D2E3FC"/>
<path opacity="0.5" d="M746.057 324.568H774.871V321.038H746.057V324.568Z" fill="#B7D3F3"/>
<path opacity="0.5" d="M748.889 321.041H776.516V317.511H748.889V321.041Z" fill="#D2E3FC"/>
<path opacity="0.5" d="M748.219 317.511H773.168V314.816H748.219V317.511Z" fill="#C8DBF4"/>
<path opacity="0.5" d="M745.107 314.818H773.921V311.289H745.107V314.818Z" fill="#B7D3F3"/>
<path opacity="0.5" d="M747.942 311.286H775.569V307.757H747.942V311.286Z" fill="#D2E3FC"/>
<path opacity="0.5" d="M747.272 307.759H772.221V305.064H747.272V307.759Z" fill="#C8DBF4"/>
<path opacity="0.5" d="M727.98 329.588H732.891V301.183H727.98V329.588Z" fill="#C1D9F4"/>
<path opacity="0.5" d="M788.383 329.588H793.294V299.882H788.383V329.588Z" fill="#C1D9F4"/>
<path opacity="0.5" d="M803.262 329.588H808.174V301.183H803.262V329.588Z" fill="#C1D9F4"/>
<path opacity="0.5" d="M721.773 329.588H727.98V298.839H721.773V329.588Z" fill="#E4EEF9"/>
<path opacity="0.5" d="M809.195 329.588H815.402V298.839H809.195V329.588Z" fill="#E4EEF9"/>
<path opacity="0.5" d="M715.565 329.588H721.773V300.305H715.565V329.588Z" fill="#B7D3F3"/>
<path opacity="0.5" d="M779.3 329.574L785.415 328.507L779.705 295.772L773.59 296.84L779.3 329.574Z" fill="#B7D3F3"/>
<path opacity="0.5" d="M709.356 329.586H715.563V304.794H709.356V329.586Z" fill="#C8DBF4"/>
<path opacity="0.5" d="M817.32 329.586H823.527V304.794H817.32V329.586Z" fill="#C8DBF4"/>
<path opacity="0.5" d="M703.148 329.586H709.356V303.46H703.148V329.586Z" fill="#95C0F4"/>
<path opacity="0.5" d="M695.948 329.586H702.155V303.46H695.948V329.586Z" fill="#D2E3FC"/>
<path opacity="0.5" d="M824.391 329.586H830.598V303.46H824.391V329.586Z" fill="#D2E3FC"/>
<path opacity="0.5" d="M688.581 329.588H694.788V301.183H688.581V329.588Z" fill="#AFCDFB"/>
<path opacity="0.5" d="M796.422 329.588H802.629V301.183H796.422V329.588Z" fill="#AFCDFB"/>
<path opacity="0.5" d="M811.699 182.21H804.651V208.449H811.699V182.21Z" fill="#C8DBF4"/>
<path opacity="0.5" d="M819.447 179.931H813.341V208.449H819.447V179.931Z" fill="#C8DBF4"/>
<path opacity="0.5" d="M825.504 179.694L819.443 180.435L822.902 208.743L828.963 208.002L825.504 179.694Z" fill="#D2E3FC"/>
<path opacity="0.5" d="M698.293 222.507H691.244V248.746H698.293V222.507Z" fill="#C8DBF4"/>
<path opacity="0.5" d="M706.041 220.226H699.935V248.744H706.041V220.226Z" fill="#C8DBF4"/>
<path opacity="0.5" d="M712.113 219.942L706.052 220.684L709.516 248.991L715.576 248.249L712.113 219.942Z" fill="#D2E3FC"/>
<path opacity="0.5" d="M614.796 182.21H607.747V208.449H614.796V182.21Z" fill="#C8DBF4"/>
<path opacity="0.5" d="M622.544 179.931H616.438V208.449H622.544V179.931Z" fill="#C8DBF4"/>
<path opacity="0.5" d="M628.598 179.678L622.537 180.42L625.996 208.727L632.057 207.986L628.598 179.678Z" fill="#D2E3FC"/>
<path opacity="0.5" d="M863.321 203.318H834.507V208.449H863.321V203.318Z" fill="#95C0F4"/>
<path opacity="0.5" d="M866.844 199.79H838.03V203.32H866.844V199.79Z" fill="#B7D3F3"/>
<path opacity="0.5" d="M864.014 196.261H836.387V199.79H864.014V196.261Z" fill="#D2E3FC"/>
<path opacity="0.5" d="M864.682 193.566H839.732V196.261H864.682V193.566Z" fill="#C8DBF4"/>
<path opacity="0.5" d="M725.011 203.318H696.197V208.449H725.011V203.318Z" fill="#D2E3FC"/>
<path opacity="0.5" d="M728.534 199.79H699.72V203.32H728.534V199.79Z" fill="#B7D3F3"/>
<path opacity="0.5" d="M725.705 196.261H698.078V199.79H725.705V196.261Z" fill="#D2E3FC"/>
<path opacity="0.5" d="M726.372 193.566H701.423V196.261H726.372V193.566Z" fill="#C8DBF4"/>
<path opacity="0.5" d="M729.484 190.036H700.67V193.566H729.484V190.036Z" fill="#B7D3F3"/>
<path opacity="0.5" d="M726.652 186.509H699.025V190.038H726.652V186.509Z" fill="#D2E3FC"/>
<path opacity="0.5" d="M727.322 183.814H702.372V186.509H727.322V183.814Z" fill="#C8DBF4"/>
<path opacity="0.5" d="M746.613 179.931H741.702V208.336H746.613V179.931Z" fill="#C1D9F4"/>
<path opacity="0.5" d="M686.211 178.629H681.299V208.336H686.211V178.629Z" fill="#C1D9F4"/>
<path opacity="0.5" d="M671.331 179.931H666.42V208.336H671.331V179.931Z" fill="#C1D9F4"/>
<path opacity="0.5" d="M752.821 177.589H746.614V208.338H752.821V177.589Z" fill="#E4EEF9"/>
<path opacity="0.5" d="M665.397 177.589H659.189V208.338H665.397V177.589Z" fill="#E4EEF9"/>
<path opacity="0.5" d="M759.028 179.055H752.821V208.338H759.028V179.055Z" fill="#B7D3F3"/>
<path opacity="0.5" d="M701.014 175.595L694.899 174.527L689.189 207.262L695.304 208.329L701.014 175.595Z" fill="#B7D3F3"/>
<path opacity="0.5" d="M815.203 243.61H786.389V248.742H815.203V243.61Z" fill="#D2E3FC"/>
<path opacity="0.5" d="M818.726 240.081H789.912V243.61H818.726V240.081Z" fill="#B7D3F3"/>
<path opacity="0.5" d="M815.894 236.553H788.267V240.083H815.894V236.553Z" fill="#D2E3FC"/>
<path opacity="0.5" d="M816.564 233.858H791.615V236.553H816.564V233.858Z" fill="#C8DBF4"/>
<path opacity="0.5" d="M819.676 230.329H790.862V233.858H819.676V230.329Z" fill="#B7D3F3"/>
<path opacity="0.5" d="M816.844 226.799H789.217V230.329H816.844V226.799Z" fill="#D2E3FC"/>
<path opacity="0.5" d="M817.511 224.104H792.562V226.799H817.511V224.104Z" fill="#C8DBF4"/>
<path opacity="0.5" d="M792.991 216.013L786.846 214.958L781.2 247.854L787.345 248.91L792.991 216.013Z" fill="#B7D3F3"/>
<path opacity="0.5" d="M765.235 183.543H759.028V208.336H765.235V183.543Z" fill="#C8DBF4"/>
<path opacity="0.5" d="M657.274 183.543H651.067V208.336H657.274V183.543Z" fill="#C8DBF4"/>
<path opacity="0.5" d="M771.445 182.21H765.238V208.336H771.445V182.21Z" fill="#95C0F4"/>
<path opacity="0.5" d="M778.643 182.21H772.436V208.336H778.643V182.21Z" fill="#D2E3FC"/>
<path opacity="0.5" d="M650.203 182.21H643.995V208.336H650.203V182.21Z" fill="#D2E3FC"/>
<path opacity="0.5" d="M769.479 217.995H763.272V248.744H769.479V217.995Z" fill="#E4EEF9"/>
<path opacity="0.5" d="M761.357 223.949H755.149V248.742H761.357V223.949Z" fill="#C8DBF4"/>
<path opacity="0.5" d="M754.285 222.616H748.078V248.742H754.285V222.616Z" fill="#D2E3FC"/>
<path opacity="0.5" d="M733.538 222.616H727.331V248.742H733.538V222.616Z" fill="#D2E3FC"/>
<path opacity="0.5" d="M724.875 222.616H718.668V248.742H724.875V222.616Z" fill="#D2E3FC"/>
<path opacity="0.5" d="M627.138 217.995H620.931V248.744H627.138V217.995Z" fill="#E4EEF9"/>
<path opacity="0.5" d="M633.319 217.722L627.158 218.477L630.893 248.998L637.054 248.243L633.319 217.722Z" fill="#E4EEF9"/>
<path opacity="0.5" d="M619.016 223.949H612.809V248.742H619.016V223.949Z" fill="#C8DBF4"/>
<path opacity="0.5" d="M611.945 222.616H605.738V248.742H611.945V222.616Z" fill="#D2E3FC"/>
<path opacity="0.5" d="M786.013 179.931H779.805V208.336H786.013V179.931Z" fill="#AFCDFB"/>
<path opacity="0.5" d="M718.548 260.742H713.636V289.148H718.548V260.742Z" fill="#C1D9F4"/>
<path opacity="0.5" d="M724.755 258.399H718.548V289.148H724.755V258.399Z" fill="#E4EEF9"/>
<path opacity="0.5" d="M730.965 259.864H724.757V289.148H730.965V259.864Z" fill="#B7D3F3"/>
<path opacity="0.5" d="M737.172 264.355H730.965V289.148H737.172V264.355Z" fill="#C8DBF4"/>
<path opacity="0.5" d="M743.379 263.022H737.172V289.148H743.379V263.022Z" fill="#95C0F4"/>
<path opacity="0.5" d="M750.58 263.022H744.373V289.148H750.58V263.022Z" fill="#D2E3FC"/>
<path opacity="0.5" d="M757.949 260.742H751.742V289.148H757.949V260.742Z" fill="#AFCDFB"/>
<path opacity="0.5" d="M832.247 220.337H826.04V248.742H832.247V220.337Z" fill="#AFCDFB"/>
<path opacity="0.5" d="M839.009 220.337H832.802V248.742H839.009V220.337Z" fill="#AFCDFB"/>
<path opacity="0.5" d="M678.169 179.931H671.962V208.336H678.169V179.931Z" fill="#AFCDFB"/>
<path opacity="0.5" d="M847.021 284.141H818.207V289.272H847.021V284.141Z" fill="#D2E3FC"/>
<path opacity="0.5" d="M850.544 280.614H821.729V284.143H850.544V280.614Z" fill="#B7D3F3"/>
<path opacity="0.5" d="M847.711 277.084H820.085V280.614H847.711V277.084Z" fill="#D2E3FC"/>
<path opacity="0.5" d="M848.381 274.389H823.432V277.084H848.381V274.389Z" fill="#C8DBF4"/>
<path opacity="0.5" d="M851.493 270.86H822.679V274.389H851.493V270.86Z" fill="#B7D3F3"/>
<path opacity="0.5" d="M848.661 267.332H821.034V270.862H848.661V267.332Z" fill="#D2E3FC"/>
<path opacity="0.5" d="M849.328 264.637H824.379V267.332H849.328V264.637Z" fill="#C8DBF4"/>
<path opacity="0.5" d="M808.22 259.453H803.309V289.159H808.22V259.453Z" fill="#C1D9F4"/>
<path opacity="0.5" d="M793.338 260.754H788.427V289.159H793.338V260.754Z" fill="#C1D9F4"/>
<path opacity="0.5" d="M787.403 258.413H781.196V289.161H787.403V258.413Z" fill="#E4EEF9"/>
<path opacity="0.5" d="M823.027 256.416L816.912 255.348L811.202 288.082L817.317 289.15L823.027 256.416Z" fill="#B7D3F3"/>
<path opacity="0.5" d="M779.281 264.369H773.074V289.161H779.281V264.369Z" fill="#C8DBF4"/>
<path opacity="0.5" d="M772.212 263.033H766.005V289.159H772.212V263.033Z" fill="#D2E3FC"/>
<path opacity="0.5" d="M706.898 258.413H700.69V289.161H706.898V258.413Z" fill="#E4EEF9"/>
<path opacity="0.5" d="M698.775 264.369H692.568V289.161H698.775V264.369Z" fill="#C8DBF4"/>
<path opacity="0.5" d="M691.704 263.033H685.497V289.159H691.704V263.033Z" fill="#D2E3FC"/>
<path opacity="0.5" d="M682.032 258.413H675.824V289.161H682.032V258.413Z" fill="#E4EEF9"/>
<path opacity="0.5" d="M673.909 264.369H667.702V289.161H673.909V264.369Z" fill="#C8DBF4"/>
<path opacity="0.5" d="M666.838 263.033H660.631V289.159H666.838V263.033Z" fill="#D2E3FC"/>
<path opacity="0.5" d="M800.178 260.754H793.971V289.159H800.178V260.754Z" fill="#AFCDFB"/>
</g>
<path d="M953.919 160.651H917.479C915.799 160.651 914.437 162.014 914.437 163.695V198.886C914.437 200.568 915.799 201.931 917.479 201.931H953.919C955.6 201.931 956.962 200.568 956.962 198.886V163.695C956.962 162.014 955.6 160.651 953.919 160.651Z" fill="#C0D8FB"/>
<path d="M952.339 162.44H919.057C917.522 162.44 916.278 163.685 916.278 165.221V197.363C916.278 198.899 917.522 200.144 919.057 200.144H952.339C953.874 200.144 955.118 198.899 955.118 197.363V165.221C955.118 163.685 953.874 162.44 952.339 162.44Z" fill="#DFEBFD"/>
<path d="M934.819 166.208C934.819 166.033 934.871 165.863 934.968 165.718C935.064 165.574 935.202 165.461 935.363 165.394C935.523 165.327 935.7 165.31 935.871 165.344C936.042 165.378 936.199 165.462 936.322 165.585C936.445 165.708 936.529 165.865 936.563 166.036C936.597 166.207 936.579 166.384 936.513 166.545C936.446 166.706 936.333 166.843 936.188 166.94C936.044 167.037 935.874 167.088 935.699 167.088C935.466 167.088 935.243 166.995 935.078 166.83C934.913 166.665 934.82 166.441 934.819 166.208Z" fill="#B7D3F3"/>
<path d="M941.927 167.453C942.012 167.301 942.14 167.177 942.295 167.098C942.449 167.018 942.624 166.986 942.797 167.006C942.97 167.026 943.133 167.097 943.266 167.209C943.399 167.322 943.495 167.472 943.543 167.639C943.591 167.807 943.588 167.984 943.535 168.15C943.482 168.316 943.38 168.462 943.244 168.571C943.108 168.679 942.942 168.744 942.769 168.759C942.595 168.773 942.422 168.735 942.269 168.651C942.168 168.595 942.079 168.519 942.007 168.429C941.935 168.338 941.881 168.234 941.85 168.123C941.818 168.012 941.808 167.896 941.822 167.781C941.835 167.666 941.871 167.554 941.927 167.453Z" fill="#B7D3F3"/>
<path d="M948.017 172.294C948.163 172.199 948.334 172.151 948.508 172.154C948.682 172.157 948.852 172.211 948.995 172.31C949.138 172.41 949.248 172.549 949.312 172.711C949.376 172.873 949.39 173.05 949.354 173.22C949.317 173.391 949.23 173.546 949.105 173.667C948.98 173.788 948.822 173.869 948.651 173.901C948.48 173.932 948.303 173.911 948.143 173.842C947.984 173.773 947.848 173.658 947.754 173.512C947.691 173.414 947.648 173.306 947.627 173.192C947.607 173.078 947.608 172.961 947.633 172.848C947.657 172.735 947.704 172.628 947.77 172.533C947.836 172.437 947.92 172.356 948.017 172.294Z" fill="#B7D3F3"/>
<path d="M951.032 179.785C951.206 179.784 951.377 179.836 951.523 179.933C951.668 180.029 951.781 180.167 951.849 180.328C951.916 180.49 951.934 180.667 951.9 180.839C951.866 181.01 951.782 181.168 951.659 181.291C951.536 181.415 951.378 181.499 951.207 181.534C951.036 181.568 950.858 181.551 950.697 181.484C950.536 181.417 950.398 181.304 950.3 181.159C950.203 181.013 950.152 180.843 950.152 180.668C950.152 180.434 950.244 180.21 950.409 180.044C950.574 179.879 950.798 179.785 951.032 179.785Z" fill="#B7D3F3"/>
<path d="M949.493 188.48C949.616 188.604 949.7 188.761 949.734 188.931C949.768 189.102 949.75 189.279 949.684 189.44C949.617 189.601 949.504 189.739 949.36 189.835C949.215 189.932 949.045 189.984 948.871 189.984C948.697 189.984 948.526 189.932 948.382 189.835C948.237 189.739 948.124 189.601 948.058 189.44C947.991 189.279 947.973 189.102 948.007 188.931C948.041 188.761 948.125 188.604 948.248 188.48C948.33 188.399 948.427 188.334 948.534 188.289C948.64 188.245 948.755 188.222 948.871 188.222C948.986 188.222 949.101 188.245 949.208 188.289C949.314 188.334 949.411 188.399 949.493 188.48Z" fill="#B7D3F3"/>
<path d="M943.339 195.535C943.825 195.535 944.219 195.141 944.219 194.654C944.219 194.168 943.825 193.774 943.339 193.774C942.853 193.774 942.459 194.168 942.459 194.654C942.459 195.141 942.853 195.535 943.339 195.535Z" fill="#B7D3F3"/>
<path d="M934.819 196.889C934.82 196.715 934.872 196.545 934.969 196.401C935.066 196.256 935.203 196.144 935.364 196.077C935.525 196.011 935.702 195.994 935.873 196.028C936.043 196.063 936.2 196.147 936.323 196.27C936.446 196.393 936.529 196.55 936.563 196.721C936.597 196.892 936.579 197.069 936.512 197.229C936.446 197.39 936.333 197.528 936.188 197.624C936.044 197.721 935.873 197.772 935.699 197.772C935.466 197.772 935.242 197.679 935.077 197.513C934.912 197.347 934.819 197.123 934.819 196.889Z" fill="#B7D3F3"/>
<path d="M929.444 167.453C929.359 167.301 929.231 167.177 929.077 167.098C928.922 167.018 928.747 166.986 928.574 167.006C928.401 167.026 928.238 167.097 928.105 167.209C927.972 167.322 927.876 167.472 927.828 167.639C927.78 167.807 927.783 167.984 927.836 168.15C927.889 168.316 927.991 168.462 928.127 168.571C928.263 168.679 928.429 168.744 928.602 168.759C928.776 168.773 928.95 168.735 929.102 168.651C929.203 168.595 929.292 168.519 929.364 168.429C929.436 168.338 929.49 168.234 929.521 168.123C929.553 168.012 929.563 167.896 929.549 167.781C929.536 167.666 929.5 167.554 929.444 167.453Z" fill="#B7D3F3"/>
<path d="M923.354 172.294C923.208 172.199 923.037 172.151 922.863 172.154C922.689 172.157 922.52 172.211 922.377 172.31C922.234 172.41 922.123 172.549 922.059 172.711C921.995 172.873 921.981 173.05 922.018 173.22C922.054 173.391 922.141 173.546 922.266 173.667C922.391 173.788 922.549 173.869 922.72 173.901C922.892 173.932 923.068 173.911 923.228 173.842C923.388 173.773 923.523 173.658 923.618 173.512C923.68 173.414 923.723 173.306 923.744 173.192C923.765 173.078 923.763 172.961 923.738 172.848C923.714 172.735 923.667 172.628 923.601 172.533C923.535 172.437 923.451 172.356 923.354 172.294Z" fill="#B7D3F3"/>
<path d="M920.339 179.785C920.165 179.784 919.994 179.836 919.848 179.933C919.703 180.029 919.59 180.167 919.522 180.328C919.455 180.49 919.437 180.667 919.471 180.839C919.505 181.01 919.589 181.168 919.712 181.291C919.836 181.415 919.993 181.499 920.164 181.534C920.335 181.568 920.513 181.551 920.674 181.484C920.836 181.417 920.974 181.304 921.071 181.159C921.168 181.013 921.22 180.843 921.22 180.668C921.22 180.434 921.127 180.21 920.962 180.044C920.797 179.879 920.573 179.785 920.339 179.785Z" fill="#B7D3F3"/>
<path d="M921.878 188.48C921.755 188.604 921.672 188.761 921.638 188.931C921.605 189.102 921.622 189.279 921.689 189.44C921.756 189.6 921.868 189.738 922.013 189.834C922.158 189.931 922.328 189.982 922.502 189.982C922.676 189.982 922.846 189.931 922.99 189.834C923.135 189.738 923.248 189.6 923.315 189.44C923.381 189.279 923.399 189.102 923.365 188.931C923.332 188.761 923.248 188.604 923.125 188.48C923.044 188.398 922.946 188.333 922.839 188.289C922.732 188.244 922.618 188.221 922.502 188.221C922.386 188.221 922.271 188.244 922.164 188.289C922.057 188.333 921.96 188.398 921.878 188.48Z" fill="#B7D3F3"/>
<path d="M928.032 195.535C928.518 195.535 928.912 195.141 928.912 194.654C928.912 194.168 928.518 193.774 928.032 193.774C927.546 193.774 927.152 194.168 927.152 194.654C927.152 195.141 927.546 195.535 928.032 195.535Z" fill="#B7D3F3"/>
<path d="M935.461 180.668C935.461 180.493 935.512 180.322 935.609 180.177C935.706 180.031 935.843 179.918 936.005 179.85C936.166 179.783 936.343 179.766 936.515 179.799C936.686 179.833 936.843 179.917 936.967 180.04C937.091 180.164 937.175 180.321 937.209 180.492C937.243 180.664 937.226 180.841 937.159 181.003C937.093 181.164 936.98 181.302 936.834 181.4C936.689 181.497 936.518 181.549 936.344 181.549C936.11 181.549 935.886 181.456 935.721 181.291C935.555 181.126 935.462 180.902 935.461 180.668Z" fill="#B7D3F3"/>
<path d="M936.464 169.656H936.224V180.668H936.464V169.656Z" fill="#B7D3F3"/>
<path d="M941.85 175.796L936.015 180.378L936.46 180.946L942.295 176.363L941.85 175.796Z" fill="#B7D3F3"/>
<path d="M1001.08 397.47C1001.08 397.47 1041.38 359.121 1052.69 368.036C1063.99 376.952 1001.08 397.47 1001.08 397.47Z" fill="#CDE0FB"/>
<path d="M998.181 404.846C998.181 404.846 1073.16 371.258 1090.89 389.019C1108.63 406.78 1070.32 404.585 1056.13 402.599C1041.95 400.614 998.181 404.846 998.181 404.846Z" fill="#CDE0FB"/>
<path d="M995.033 396.626C995.033 396.626 995.386 394.738 995.867 391.973C996.805 386.581 998.23 377.858 998.479 373.313C998.858 366.439 1004.38 361.557 1010.45 368.556C1016.51 375.555 997.366 394.74 997.366 394.74L995.033 396.626Z" fill="#CDE0FB"/>
<path d="M1016.3 265.326C1010.82 250.963 986.379 258.089 986.379 258.089C986.379 258.089 972.07 285.637 967.205 286.751C962.34 287.865 974.828 260.807 974.828 260.807C965.204 260.846 942.092 274.985 942.092 274.985C942.092 274.985 946.666 304.981 941.685 304.861C936.704 304.74 938.989 278.097 938.989 278.097C930.044 281.795 922.52 293.431 922.52 293.431C913.525 312.051 937.885 322.647 937.885 322.647C937.885 322.647 939.248 333.076 933.999 345.724C933.999 345.724 932.763 348.087 931.661 352.002L934.177 351.748C934.313 351.053 934.474 350.379 934.662 349.725V349.698C934.796 349.291 934.988 348.713 935.228 348.008C935.845 346.425 936.252 345.26 936.501 344.425C938.328 339.467 941.024 332.979 943.106 331.465C942.841 331.128 942.621 330.759 942.452 330.365L943.106 331.465C948.34 340.248 970.019 339.629 981.761 335.959C993.503 332.288 987.936 329.431 980.927 324.589C973.918 319.746 960.533 322.559 956.32 320.809C952.106 319.06 957.731 316.316 965.791 316.126C973.851 315.937 978.652 323.523 991.688 323.458C1004.72 323.394 1012.12 298.09 1012.12 298.09C1003.48 301.759 986.996 298.449 986.069 295.435C985.143 292.421 1008.85 290.349 1012.45 289.046C1016.05 287.742 1021.79 279.692 1016.3 265.326Z" fill="#DFEBFD"/>
<path d="M622.407 392.163C611.118 378.35 632.389 357.852 632.389 357.852C632.389 357.852 668.365 359.332 672.285 355.079C676.206 350.826 641.775 347.804 641.775 347.804C647.366 338.131 674.928 323.005 674.928 323.005C674.928 323.005 702.469 344.908 705.223 339.823C707.977 334.738 679.846 321.667 679.846 321.667C688.729 314.79 704.777 313.921 704.777 313.921C728.705 315.604 725.312 346.258 725.312 346.258C725.312 346.258 735.014 353.655 750.776 355.656C750.776 355.656 753.865 355.777 758.441 356.923L756.734 359.311C755.956 359.047 755.186 358.821 754.424 358.633H754.41H754.378C753.89 358.534 753.2 358.402 752.35 358.229C750.402 357.938 748.995 357.674 748.013 357.443C741.972 356.424 733.887 355.398 731.163 356.62C730.978 356.159 730.732 355.725 730.433 355.328L731.163 356.62C736.992 366.968 723.85 388.442 713.375 398.154C702.901 407.867 703.243 400.609 702.416 390.758C701.589 380.906 712.14 369.044 712.812 363.79C713.484 358.536 707.478 362.618 702.647 370.625C697.817 378.632 702.68 387.85 695.086 400.942C687.493 414.034 657.748 406.854 657.748 406.854C666.422 400.269 672.602 381.752 670.102 379.083C667.603 376.413 651.834 399.093 648.454 401.966C645.074 404.839 633.697 405.974 622.407 392.163Z" fill="#CDE0FB"/>
<path d="M716.566 331.578H831.291C833.815 331.578 836.315 332.076 838.647 333.042C840.979 334.009 843.098 335.426 844.883 337.212C846.668 338.998 848.084 341.118 849.05 343.451C850.016 345.785 850.514 348.286 850.514 350.812V367.858C850.514 373.075 848.442 378.078 844.756 381.767C841.069 385.456 836.068 387.529 830.854 387.529H716.566V331.578Z" fill="#FCECDB"/>
<path d="M950.399 354.598V363.016C950.426 367.25 949.59 371.445 947.943 375.345C944.806 382.631 938.968 387.529 932.287 387.529H712.978C711.527 387.529 710.352 385.936 710.352 383.976V382.714C710.352 380.754 711.527 379.161 712.978 379.161H842.916C844.122 379.169 845.303 378.813 846.304 378.14C847.305 377.466 848.081 376.507 848.529 375.387L848.543 375.345C849.857 371.933 850.522 368.305 850.504 364.648V353.948C850.507 352.038 850.325 350.131 849.962 348.255C849.962 348.225 849.962 348.193 849.945 348.163C849.472 345.838 848.209 343.75 846.371 342.252C844.532 340.755 842.232 339.94 839.862 339.948H712.978C711.527 339.948 710.352 338.355 710.352 336.391V335.133C710.352 333.169 711.527 331.578 712.978 331.578H933.399C941.165 331.578 947.721 338.626 949.75 348.255C950.186 350.341 950.404 352.467 950.399 354.598Z" fill="#B5453C"/>
<path d="M716.566 359.553L732.804 360.494L716.566 361.061V359.553Z" fill="#F4D2B8"/>
<path d="M716.566 368.332L755.198 369.273L716.566 369.839V368.332Z" fill="#F4D2B8"/>
<path d="M731.221 239.438H826.038C830.296 239.438 834.38 241.131 837.391 244.143C840.401 247.156 842.093 251.242 842.093 255.502V270.159C842.093 274.517 840.363 278.696 837.284 281.777C834.204 284.858 830.028 286.589 825.673 286.589H731.221V239.436V239.438Z" fill="#FCECDB"/>
<path d="M924.784 258.838V265.932C924.808 269.5 924.117 273.037 922.751 276.333C920.152 282.472 915.322 286.6 909.791 286.6H728.26C727.058 286.6 726.086 285.257 726.086 283.595V282.535C726.086 280.882 727.058 279.53 728.26 279.53H838.914C839.523 278.504 840.042 277.429 840.467 276.314C841.553 273.434 842.102 270.379 842.084 267.3V258.285C842.086 256.675 841.936 255.069 841.636 253.487C841.183 251.024 840.316 248.656 839.072 246.483H728.26C727.058 246.483 726.086 245.143 726.086 243.478V242.42C726.086 240.763 727.058 239.415 728.26 239.415H910.715C917.144 239.415 922.566 245.355 924.25 253.471C924.612 255.237 924.791 257.035 924.784 258.838Z" fill="#AFCDFB"/>
<path d="M731.221 263.015L744.661 263.807L731.221 264.286V263.015Z" fill="#F4D2B8"/>
<path d="M731.221 270.413L763.2 271.206L731.221 271.682V270.413Z" fill="#F4D2B8"/>
<path d="M873.167 424.098H742.836C738.021 424.098 733.402 422.184 729.997 418.776C726.592 415.369 724.679 410.748 724.679 405.93V404.483C724.679 399.958 726.475 395.619 729.673 392.419C732.871 389.22 737.208 387.422 741.73 387.422H873.176V424.098H873.167Z" fill="#2B478B"/>
<path d="M1014.79 424.098H866.343C861.64 424.098 857.131 422.229 853.806 418.902C850.48 415.575 848.612 411.062 848.612 406.357V404.767C848.612 400.169 850.438 395.76 853.687 392.509C856.936 389.258 861.343 387.432 865.938 387.432H1014.79V424.098Z" fill="#FCECDB"/>
<path d="M838.762 424.107H1019.86C1021.32 424.107 1022.5 422.927 1022.5 421.472V421.257C1022.5 419.802 1021.32 418.622 1019.86 418.622H838.762C837.308 418.622 836.128 419.802 836.128 421.257V421.472C836.128 422.927 837.308 424.107 838.762 424.107Z" fill="#2B478B"/>
<path d="M838.762 392.917H1019.86C1021.32 392.917 1022.5 391.737 1022.5 390.282V390.067C1022.5 388.611 1021.32 387.432 1019.86 387.432H838.762C837.308 387.432 836.128 388.611 836.128 390.067V390.282C836.128 391.737 837.308 392.917 838.762 392.917Z" fill="#2B478B"/>
<path d="M1014.79 405.768L994.642 406.385L1014.79 406.757V405.768Z" fill="#F4D2B8"/>
<path d="M1014.79 397.329L966.858 397.944L1014.79 398.316V397.329Z" fill="#F4D2B8"/>
<path d="M967.357 397.821C967.357 397.821 969.411 399.398 970.09 401.982C970.216 402.455 970.287 402.942 970.303 403.431C970.416 406.873 970.303 414.662 970.303 414.662L976.367 410.784L982.417 414.679V404.122C982.417 402.125 981.897 400.193 980.934 398.912C980.472 398.298 979.899 397.833 979.259 397.833L967.357 397.821Z" fill="#699DEE"/>
<path d="M967.357 397.821C967.357 397.821 969.411 399.398 970.09 401.982L982.244 402.137C982.244 402.137 981.765 398.439 979.259 397.817L967.357 397.821Z" fill="#568CDB"/>
<path d="M974.512 331.578H827.53C822.315 331.578 817.313 329.505 813.626 325.816C809.938 322.126 807.866 317.122 807.866 311.903V305.829C807.866 300.727 809.892 295.834 813.498 292.226C817.104 288.618 821.994 286.591 827.094 286.591H974.512V331.578Z" fill="#FCECDB"/>
<path d="M807.783 304.045V313.73C807.796 315.187 808.145 316.621 808.804 317.92C809.959 320.232 812.006 322.141 814.579 323.37C816.676 324.352 818.964 324.856 821.279 324.847H978.908C980.756 324.847 982.251 326.098 982.251 327.642V328.784C982.251 330.326 980.754 331.578 978.908 331.578H706.634C698.819 331.578 691.919 328.342 687.747 323.37C685.118 320.243 683.575 316.436 683.575 312.315V304.687C683.582 301.923 684.325 299.211 685.725 296.828C689.225 290.779 696.643 286.607 705.225 286.607H978.908C980.756 286.607 982.251 287.855 982.251 289.399V290.541C982.251 292.083 980.754 293.336 978.908 293.336H820.81C817.033 293.336 813.614 294.679 811.225 296.828C810.21 297.732 809.374 298.818 808.758 300.03C808.133 301.277 807.799 302.65 807.783 304.045Z" fill="#7EB2FC"/>
<path d="M974.509 309.084L954.307 309.839L974.509 310.295V309.084Z" fill="#F4D2B8"/>
<path d="M974.509 298.731L926.443 299.487L974.509 299.942V298.731Z" fill="#F4D2B8"/>
<path d="M926.93 299.336C926.93 299.336 930.102 300.762 931.153 303.108C931.343 303.521 931.454 303.966 931.481 304.419C931.657 307.535 931.481 314.589 931.481 314.589L940.846 311.062L950.188 314.589V305.032C950.193 304.123 949.989 303.225 949.592 302.407C949.195 301.59 948.616 300.875 947.899 300.316C947.169 299.711 946.259 299.367 945.312 299.339L926.93 299.336Z" fill="#F99746"/>
<path d="M926.93 299.336C926.93 299.336 930.102 300.762 931.153 303.109L949.921 303.247C949.921 303.247 949.184 299.889 945.3 299.336H926.93Z" fill="#ED7D2B"/>
<path d="M1150 424.914V425.191C1150.01 425.398 1149.93 425.6 1149.79 425.751C1149.65 425.903 1149.45 425.992 1149.24 426H482.758C482.551 425.992 482.355 425.903 482.213 425.751C482.071 425.6 481.995 425.398 482 425.191V424.914C481.995 424.706 482.072 424.506 482.214 424.355C482.356 424.204 482.551 424.115 482.758 424.107H1149.24C1149.45 424.115 1149.65 424.204 1149.79 424.355C1149.93 424.506 1150.01 424.706 1150 424.914Z" fill="#2E3552"/>
<path d="M791.444 175.042C791.444 175.042 794.856 180.092 796.801 190.709C798.503 200.005 799.998 203.438 802.458 205.345C804.919 207.252 818.629 212.88 818.629 212.88L817.604 215.284C817.604 215.284 797.505 212.545 795.255 209.184C793.005 205.823 784.398 185.975 785.063 181.403C785.728 176.831 791.444 175.042 791.444 175.042Z" fill="#F4A269"/>
<path d="M840.645 285.939C840.464 287.899 843.186 288.378 846.351 288.535C849.516 288.692 848.555 289.339 852.886 290.123C857.218 290.907 858.95 289.723 859.264 289.138C859.544 288.618 857.529 287.807 855.386 286.889L854.575 286.538C852.158 285.475 850.805 283.302 848.922 281.3C847.138 279.396 845.457 273.305 845.457 273.305L839.573 272.048C839.573 272.048 841.227 277.53 841.8 279.872C842.137 281.259 841.638 282.786 841.197 283.958C840.925 284.591 840.739 285.257 840.645 285.939Z" fill="#FFB27D"/>
<path d="M846.351 288.535C849.511 288.692 848.555 289.339 852.886 290.123C857.218 290.906 858.95 289.723 859.264 289.138C859.544 288.618 857.529 287.807 855.386 286.889L855.351 286.924C853.212 287.543 850.946 287.57 848.793 287.003C845.928 286.226 843.158 284.513 841.185 283.958C840.917 284.592 840.736 285.258 840.645 285.939C840.464 287.899 843.19 288.378 846.351 288.535Z" fill="#C65447"/>
<path d="M782.051 216.127C782.051 216.127 821.15 213.183 828.512 217.831C835.874 222.479 847.686 276.62 847.686 276.62C847.686 276.62 846.958 277.204 845.332 277.38C843.816 277.544 840.481 276.654 840.481 276.654C840.481 276.654 823.515 252.431 822.321 246.326C821.126 240.222 821.418 234.769 818.696 234.633C815.975 234.496 782.053 238.759 776.922 229.714C771.791 220.669 776.033 211.717 776.033 211.717L782.051 216.127Z" fill="#ED7D2B"/>
<path d="M825.682 292.224C825.502 294.184 828.223 294.66 831.39 294.817C834.557 294.975 833.594 295.622 837.923 296.408C842.252 297.194 843.99 296.008 844.304 295.421C844.581 294.903 842.569 294.089 840.423 293.172L839.612 292.82C837.198 291.759 835.844 289.584 833.961 287.583C832.178 285.68 830.496 279.588 830.496 279.588L824.592 278.339C824.592 278.339 826.243 283.824 826.816 286.163C827.153 287.55 826.657 289.081 826.216 290.252C825.952 290.883 825.773 291.546 825.682 292.224Z" fill="#FFB27D"/>
<path d="M831.39 294.817C834.548 294.975 833.594 295.622 837.923 296.408C842.252 297.194 843.99 296.008 844.304 295.421C844.581 294.903 842.569 294.089 840.423 293.172L840.391 293.209C838.251 293.826 835.985 293.853 833.832 293.287C830.968 292.508 828.198 290.796 826.225 290.243C825.957 290.877 825.775 291.543 825.682 292.224C825.502 294.184 828.23 294.66 831.39 294.817Z" fill="#C65447"/>
<path d="M774.393 218.55C774.393 218.55 809.125 220.195 816.301 225.128C823.476 230.061 833.164 284.619 833.164 284.619C833.164 284.619 832.414 285.174 830.78 285.287C829.26 285.391 825.966 284.363 825.966 284.363C825.966 284.363 809.955 259.497 808.998 253.351C808.042 247.204 808.536 241.777 805.831 241.525C803.126 241.273 769.054 244.22 764.279 234.984C759.504 225.748 774.393 218.55 774.393 218.55Z" fill="#F99746"/>
<path d="M789.94 143.93C788.611 142.645 786.773 142.081 785.449 141.813C785.797 141.647 786.182 141.572 786.567 141.596C785.788 141.267 783.779 141.607 783.779 141.607C773.644 134.386 767.631 150.499 766.88 154.408C766.129 158.316 764.755 163.91 759.98 168.755C747.736 181.186 765.228 195.567 765.228 195.567C765.302 195.641 774.007 176.997 782.751 174.002C785.262 171.785 787.124 167.211 787.267 166.85C785.989 170.528 784.807 172.472 783.929 173.512C791.765 169.305 793.465 147.33 789.94 143.93Z" fill="#163560"/>
<path d="M772.933 169.226C775.085 169.048 777.249 169.048 779.401 169.226C781.329 169.431 783.219 169.906 785.015 170.636C788.076 171.915 787.755 177.339 781.318 176.334C774.882 175.328 772.482 170.833 772.933 169.226Z" fill="#FFB27D"/>
<path d="M784.744 173.181C784.781 173.2 785.668 177.846 781.455 177.658C778.682 177.538 772.739 174.191 773.265 171.829C773.515 170.706 775.601 167.789 776.021 161.129L776.525 161.263L784.975 163.531C784.975 163.531 784.601 166.217 784.425 168.755C784.278 170.888 784.271 172.92 784.744 173.181Z" fill="#FFB27D"/>
<path d="M784.975 163.531C784.975 163.531 784.601 166.217 784.425 168.755C779.641 168.293 777.4 163.758 776.525 161.263L784.975 163.531Z" fill="#F4A269"/>
<path d="M775.728 159.786C775.728 159.786 774.277 155.305 774.538 151.858C774.723 149.399 778.156 140.995 786.595 144.489C788.295 145.187 789.818 146.257 791.051 147.621C792.624 149.397 794.657 152.875 789.637 159.699L788.182 162.066L775.728 159.786Z" fill="#163560"/>
<path d="M785.202 167.426C785.202 167.426 774.148 164.784 775.899 157.921C777.65 151.059 777.403 146.096 784.534 147.492C791.666 148.888 792.363 151.858 792.335 154.29C792.308 156.722 788.122 167.937 785.202 167.426Z" fill="#FFB27D"/>
<path d="M789.589 148.611C789.589 148.611 784.506 155.887 779.584 155.889C774.661 155.892 772.965 154.137 772.965 154.137C775.761 152.717 777.976 150.369 779.232 147.494C779.232 147.494 788.297 144.198 789.589 148.611Z" fill="#163560"/>
<path d="M788.676 149.073C788.676 149.073 790.464 151.447 790.566 153.335C790.668 155.224 789.993 158.883 791.072 159.028C791.072 159.028 794.745 154.142 792.985 150.393C791.12 146.417 788.676 149.073 788.676 149.073Z" fill="#163560"/>
<path d="M797.771 216.717C796.847 217.817 793.985 218.155 790.919 218.658C788.508 219.056 785.973 219.555 784.171 220.616C780.08 223.018 766.712 231.142 762.794 230.773C761.274 230.629 761.56 227.728 762.479 223.878C763.928 217.799 766.959 209.355 766.959 205.684C766.959 203.68 767.626 198.937 768.516 193.517C768.587 193.08 768.661 192.641 768.747 192.195C770.507 181.655 772.944 169.226 772.944 169.226C772.944 169.226 775.663 175.162 780.96 175.162C786.257 175.162 785.026 170.636 785.026 170.636C785.026 170.636 789.861 171.205 791.002 172.435C792.144 173.664 795.041 178.985 795.623 180.437C795.623 180.437 795.74 182.286 791.171 183.162C791.171 183.162 792.285 188.173 792.416 191.513C792.513 193.982 790.732 201.706 790.222 206.51C790.039 208.211 790.016 209.547 790.291 210.152C790.644 210.929 791.788 211.701 793.088 212.464C795.653 213.964 798.861 215.411 797.771 216.717Z" fill="#1C468A"/>
<path d="M793.07 212.464C796.002 217.466 785.119 218.97 783.317 220.029C779.226 222.433 766.712 231.147 762.794 230.777C761.274 230.634 761.56 227.733 762.479 223.882C763.928 217.803 766.959 209.36 766.959 205.689C766.959 203.685 767.626 198.942 768.516 193.522L773.231 188.991C773.231 188.991 778.285 202.06 783.102 204.203C785.393 205.19 787.77 205.963 790.203 206.514C790.021 208.215 789.998 209.551 790.273 210.157C790.633 210.929 791.77 211.701 793.07 212.464Z" fill="#2C3A64"/>
<path d="M771.484 173.137C771.484 173.137 767.451 170.687 763.551 175.335C759.652 179.984 766.323 213.21 772.099 214.919C778.516 216.814 797.769 216.717 797.769 216.717L796.965 214.38C796.965 214.38 776.961 207.931 776.141 206.875C775.321 205.818 773.538 173.674 771.484 173.137Z" fill="#FFB27D"/>
<path d="M772.933 169.226C772.933 169.226 764.651 169.973 762.246 172.693C759.841 175.414 759.139 182.804 759.139 182.804C759.139 182.804 766.432 188.695 775.217 186.409L772.933 169.226Z" fill="#1C468A"/>
<path d="M824.335 204.762L825.125 197.495L814.852 211.038C814.852 211.038 819.154 213.18 819.405 212.771C819.657 212.362 824.335 204.762 824.335 204.762Z" fill="#163560"/>
<path d="M808.964 204.762L799.474 219.259H815.411L824.335 204.762H808.964Z" fill="#1C468A"/>
<path d="M824.335 204.762L825.081 197.564L819.713 204.286L824.335 204.762Z" fill="#EFDECE"/>
<path d="M799.961 218.515L799.233 217.995L808.663 203.974L808.964 204.762L799.961 218.515Z" fill="#EFDECE"/>
<path d="M808.663 203.974L823.677 204.397L824.335 204.762H808.964L808.663 203.974Z" fill="#FCECDB"/>
<path d="M805.529 216.393C805.188 216.361 804.845 216.361 804.505 216.393C805.66 215.859 806.815 215.279 806.815 215.279C806.815 215.279 806.302 214.752 804.332 215.452C804.118 215.527 803.891 215.552 803.667 215.526L806.439 214.283C805.947 213.839 804.623 214.193 803.593 214.572C803.231 214.705 802.842 214.744 802.462 214.686C802.081 214.628 801.721 214.474 801.417 214.239L801.386 214.216L801.523 214.2C803.14 213.969 803.544 213.044 803.098 213.146C802.652 213.247 799.947 213.448 799.947 213.448C798.725 213.379 796.304 214.313 796.304 214.313L797.658 216.812C797.658 216.812 801.55 217.537 802.565 217.223C802.645 217.198 802.743 217.163 802.851 217.121L806.39 216.89C806.39 216.89 806.307 216.488 805.529 216.393Z" fill="#FFB27D"/>
<path d="M942.408 314.011C942.408 314.011 962.834 322.915 966.539 322.753C970.245 322.592 993.106 315.791 993.106 315.791L992.524 319.721C992.524 319.721 974.893 329.868 968.729 330.443C962.661 331.01 941.911 324.993 939.908 323.724C937.905 322.455 936.584 315.299 942.408 314.011Z" fill="#ED985F"/>
<path d="M939.338 281.259C939.338 281.259 931.802 279.826 928.05 282.569C921.252 287.534 920.889 304.66 918.348 307.209C915.807 309.758 909.66 308.672 909.107 321.873C908.555 335.073 911.554 336.176 907.989 342.068C904.425 347.959 909.498 353.856 909.498 353.856C909.498 353.856 907.419 350.604 908.31 348.255C908.31 348.255 909.174 353.437 912.469 354.651C915.763 355.864 916.246 356.757 916.77 358.536C916.77 358.536 944.836 344.148 944.866 333.943C944.896 323.738 950.389 313.626 947.693 309.211C947.693 309.211 948.895 311.104 949.04 313.207C949.04 313.207 950.657 310.105 947.855 307.216C945.053 304.327 951.145 298.352 950.241 291.429C949.613 286.672 946.282 281.464 939.338 281.259Z" fill="#233862"/>
<path d="M944.889 323.736C943.094 324.981 940.846 326.008 938.021 326.66C927.438 329.107 923.382 320.155 921.85 314.011C922.957 313.4 924.179 313.024 925.438 312.909C926.202 312.819 927.006 312.759 927.674 312.726C928.861 311.816 930.633 308.087 931.024 302.299L931.523 302.434L939.862 304.717C939.862 304.717 939.481 307.371 939.294 309.879C939.148 311.841 939.128 313.716 939.497 314.176C940.149 314.317 940.539 314.407 940.539 314.407C942.284 317.37 943.74 320.494 944.889 323.736Z" fill="#FFB27D"/>
<path d="M939.867 304.72C939.867 304.72 939.483 307.371 939.296 309.881C934.572 309.419 932.366 304.905 931.525 302.436L939.867 304.72Z" fill="#ED985F"/>
<path d="M941.281 307.209C941.281 307.209 930.065 306.592 930.557 299.607C931.049 292.622 929.936 287.842 937.118 287.941C944.3 288.04 945.501 290.805 945.896 293.174C946.291 295.543 944.212 307.191 941.281 307.209Z" fill="#FFB27D"/>
<path d="M945.85 289.268C944.267 287.044 942.925 287.419 942.154 287.99C936.272 284.18 931.968 288.879 931.968 288.879C931.253 291.897 929.512 294.572 927.043 296.447C927.043 296.447 928.995 297.855 933.789 296.981C935.253 296.715 936.612 295.784 937.792 294.621C936.405 296.561 934.758 298.302 932.899 299.796C938.709 297.6 941.528 289.936 941.812 289.124C942.452 289.788 943.704 291.221 944.023 292.559C944.455 294.376 946.312 297.219 947.388 297.182C947.382 297.17 948.22 292.605 945.85 289.268Z" fill="#233862"/>
<path d="M918.662 346.556C917.65 341.374 914.347 320.668 917.65 314.012C918.835 311.619 923.49 311.402 928.598 311.612C930.187 312.639 936.242 316.519 938.73 316.034L938.869 316.002C940.04 315.708 940.486 314.885 939.504 314.176C941.402 314.048 943.308 314.165 945.175 314.522C946.95 314.857 951.734 317.335 951.734 317.335C951.734 317.335 949.324 321.69 945.771 323.195C946.377 328.601 945.478 330.989 939.869 343.48C935.131 354.038 940.509 363.543 940.509 363.543C940.509 363.543 912.617 385.982 912.462 374.557C912.346 365.956 919.958 353.179 918.662 346.556Z" fill="white"/>
<path d="M941.893 387.942C942.642 387.858 943.364 387.611 944.008 387.218C944.652 386.826 945.203 386.298 945.621 385.67C945.758 385.469 945.901 385.252 946.053 385.021C949.23 380.211 950.463 365.485 957.604 349.795C959.344 345.974 965.585 345.287 967.288 340.97C967.288 340.97 971.479 326.974 959.27 326.56C947.061 326.146 926.567 365.503 926.237 369.641C925.93 373.628 918.17 390.621 941.893 387.942Z" fill="#DD6D22"/>
<path d="M990.426 387.621H973.047C973.047 387.621 972.396 384.847 973.537 382.959C974.549 381.29 974.16 380.338 973.412 378.956C974.334 379.356 975.334 379.545 976.339 379.508C977.205 379.457 978.122 379.064 978.924 378.597C979.672 379.453 982.877 383.084 983.877 383.803C985.011 384.621 990.077 384.33 990.426 387.621Z" fill="#233862"/>
<path d="M920.494 319.439C920.494 319.439 918.232 340.031 932.904 344.344C947.575 348.657 951.738 325.391 939.894 323.726C928.05 322.062 920.494 319.439 920.494 319.439Z" fill="#EBEEF2"/>
<path d="M967.688 330.608C968.736 338.466 972.823 363.236 980.031 375.324C982.357 379.221 974.174 381.406 974.131 381.396C973.033 381.108 971.206 379.358 970.365 378.597C964.511 373.32 952.63 358.375 952.63 346.395C952.63 340.551 952.526 329.394 956.772 326.558C959.387 324.81 967.274 327.489 967.688 330.608Z" fill="#ED7D2B"/>
<path d="M931.527 387.621C931.527 387.621 932.172 386.724 933.295 385.021C934.632 382.994 936.111 379.011 937.915 373.898C939.8 368.533 942.036 361.934 944.831 355.067C945.693 352.947 946.61 350.802 947.585 348.66C949.324 344.841 954.109 345.368 955.811 341.051C955.811 341.051 962.453 326.082 950.242 325.668C938.03 325.254 914.818 365.711 913.485 369.64C912.025 373.919 904.903 391.731 931.527 387.621Z" fill="#F99746"/>
<path d="M977.667 387.621H960.288C960.288 387.621 959.637 384.847 960.778 382.959C961.79 381.29 961.402 380.338 960.653 378.956C961.576 379.356 962.577 379.545 963.582 379.508C964.446 379.457 965.364 379.064 966.165 378.597C966.914 379.453 970.118 383.084 971.118 383.803C972.255 384.621 977.318 384.33 977.667 387.621Z" fill="#2B478B"/>
<path d="M937.905 373.898C939.79 368.533 942.027 361.934 944.822 355.067C944.092 349.864 942.512 345.313 939.869 343.48C939.867 343.48 933.447 363.4 937.905 373.898Z" fill="#ED7D2B"/>
<path d="M957.544 330.05C958.59 337.909 960.064 363.236 967.274 375.324C969.598 379.221 961.418 381.406 961.372 381.396C960.277 381.108 958.447 379.358 957.606 378.597C951.752 373.32 939.871 358.375 939.871 346.395C939.871 340.551 946.723 329.861 950.96 327.027C953.584 325.28 957.128 326.932 957.544 330.05Z" fill="#F99746"/>
<path d="M943.383 303.194C943.383 303.194 942.32 302.773 939.338 303.016C939.338 303.016 939.495 304.172 941.696 304.297C942.944 304.361 943.383 303.194 943.383 303.194Z" fill="white"/>
<path d="M995.271 307.565L991.667 301.061L983.872 322.825L988.472 327.764L995.271 307.565Z" fill="#163560"/>
<path d="M976.457 311.374L969.21 332.087L988.472 327.764L995.271 307.565L976.457 311.374Z" fill="#1C468A"/>
<path d="M969.593 331.042L969.256 330.453L976.113 310.852L976.457 311.374L969.593 331.042Z" fill="#EFDECE"/>
<path d="M976.113 310.852L994.374 307.297L995.271 307.565L976.457 311.374L976.113 310.852Z" fill="#FCECDB"/>
<path d="M995.27 307.565L991.376 301.377L988.89 308.362L994.374 307.297L995.27 307.565Z" fill="#EFDECE"/>
<path d="M982.017 314.374C981.391 314.254 980.047 313.748 978.686 313.374C979.093 313.057 979.545 312.68 979.67 312.271C979.901 311.504 980.074 311.259 979.266 311.501C978.457 311.744 975.625 313.043 975.625 313.043C974.008 313.505 972.534 315.789 972.534 315.789C972.534 315.789 952.621 322.793 950.223 322.913C946.527 323.1 921.848 314.009 921.848 314.009C916.026 315.297 917.334 322.453 919.337 323.717C921.34 324.982 939.091 331.447 949.599 331.576C954.926 331.638 974.318 319.173 974.318 319.173C974.318 319.173 976.582 318.137 978.363 318.461C980.144 318.785 984.27 318.461 985.159 317.002C986.048 315.544 983.066 314.578 982.017 314.374Z" fill="#FFB27D"/>
<path d="M934.567 318.496C934.567 318.496 932.361 325.483 924.784 327.073C924.784 327.073 912.27 323.216 918.5 314.686C918.5 314.686 924.662 310.107 934.567 318.496Z" fill="white"/>
<path d="M994.947 314.901C994.954 314.71 994.931 314.519 994.88 314.335C994.88 314.335 993.097 311.508 992.512 311.393C990.731 311.041 990.731 313.387 991.11 314.901C991.377 315.881 991.883 316.779 992.584 317.513L992.514 319.723C995.518 318.07 994.947 314.901 994.947 314.901Z" fill="#FFB27D"/>
<path d="M837.297 349.323C837.297 349.323 834.125 351.262 833.074 354.448C832.882 355.023 832.77 355.623 832.744 356.23C832.571 360.464 832.744 370.045 832.744 370.045L823.386 365.249L814.046 370.04V357.055C814.046 354.6 814.848 352.201 816.335 350.648C817.056 349.889 817.932 349.318 818.923 349.318L837.297 349.323Z" fill="#F99746"/>
<path d="M837.297 349.323C837.297 349.323 834.126 351.262 833.074 354.448L814.305 354.637C814.305 354.637 815.042 350.077 818.925 349.321L837.297 349.323Z" fill="#ED7D2B"/>
<path d="M652.949 287.34C652.949 287.34 654.938 295.978 660.737 295.978C665.708 295.978 672.519 284.735 672.519 284.735L652.949 287.34Z" fill="#F99746"/>
<path d="M719.19 415.672L715.864 417.441C715.864 417.441 697.872 398.353 693.548 380.037C692.776 376.767 692.464 373.542 692.795 370.482C692.795 370.482 692.534 369.652 692.074 368.184C692.055 368.122 692.035 368.055 692.014 367.99C691.813 367.345 691.573 366.589 691.307 365.732C690.438 362.958 689.244 359.177 687.886 354.868C684.753 344.945 677.592 322.566 674.531 313.263L696.528 305.3C696.528 305.3 699.025 311 702.615 326.493C703.169 328.516 703.724 330.753 704.232 333.196C704.819 335.956 705.366 338.975 705.824 342.234C706.678 348.381 707.118 354.579 707.141 360.785C707.154 363.559 707.077 366.43 706.909 369.398C706.789 371.573 707.113 374.471 707.718 377.77C710.509 392.826 719.19 415.672 719.19 415.672Z" fill="#2B478B"/>
<path d="M731.233 424.107H713.445C713.445 424.107 712.782 421.268 713.948 419.338C714.981 417.628 714.586 416.655 713.821 415.243C714.768 415.652 715.794 415.844 716.824 415.807C717.712 415.756 718.647 415.344 719.47 414.882C720.234 415.756 723.512 419.472 724.536 420.198C725.693 421.037 730.875 420.739 731.233 424.107Z" fill="#233862"/>
<path d="M705.831 342.218L692.014 367.99C691.813 367.345 691.573 366.589 691.307 365.732C690.438 362.958 689.244 359.177 687.886 354.868C684.753 344.945 677.592 322.566 674.531 313.263L696.528 305.3C696.528 305.3 699.025 311 702.615 326.493C703.169 328.516 703.724 330.753 704.232 333.196C704.826 335.94 705.373 338.956 705.831 342.218Z" fill="#233862"/>
<path d="M674.173 418.536C674.173 418.536 672.941 421.557 674.101 424.107H683.773C683.773 424.107 683.974 421.809 680.465 419.144C677.806 417.126 674.173 418.536 674.173 418.536Z" fill="#233862"/>
<path d="M684.7 221.802C684.7 221.321 684.954 216.125 692.841 215.665C692.841 215.665 688.971 216.222 688.341 217.944C688.341 217.944 690.933 215.771 693.102 216.398C695.271 217.024 696.627 220.769 696.669 222.01C696.71 223.251 695.613 227.28 694.254 227.652C693.712 227.778 693.149 227.793 692.6 227.696C693.005 228.296 693.374 228.92 693.705 229.564C697.013 235.957 694.167 243.49 691.475 242.857C689.754 242.45 688.703 245.434 688.703 245.434L672.154 231.186C672.154 231.186 677.954 218.406 684.7 221.802Z" fill="#2C3A64"/>
<path d="M674.295 265.083C676.129 266.357 678.43 267.406 681.32 268.074C692.15 270.578 696.299 261.42 697.858 255.13C696.727 254.504 695.477 254.12 694.19 254.002C693.407 253.91 692.573 253.85 691.9 253.815C690.685 252.891 688.874 249.07 688.472 243.148L687.964 243.284L679.416 245.621C679.416 245.621 679.807 248.337 679.999 250.903C680.146 252.909 680.17 254.832 679.791 255.294C679.125 255.44 678.726 255.526 678.726 255.526C676.946 258.562 675.462 261.762 674.295 265.083Z" fill="#FFB27D"/>
<path d="M679.428 245.626C679.428 245.626 679.821 248.337 680.01 250.905C684.845 250.422 687.091 245.82 687.964 243.289L679.428 245.626Z" fill="#ED985F"/>
<path d="M679.329 249.698C679.329 249.698 690.461 246.837 688.569 239.928C686.677 233.019 686.846 227.994 679.657 229.527C672.468 231.059 671.821 234.078 671.892 236.54C671.964 239.001 676.383 250.265 679.329 249.698Z" fill="#FFB27D"/>
<path d="M671.165 232.608C672.308 230.065 673.727 230.16 674.63 230.585C679.775 225.588 685.026 229.441 685.026 229.441C687.128 234.193 691.478 236.052 691.478 236.052C691.478 236.052 689.801 237.855 684.815 237.938C683.293 237.961 681.745 237.3 680.329 236.369C682.108 238.038 684.107 239.457 686.271 240.585C680.001 239.54 675.644 232.414 675.196 231.656C674.685 232.448 673.715 234.136 673.664 235.543C673.595 237.453 674.339 241.142 673.251 241.308C673.249 241.308 669.451 236.429 671.165 232.608Z" fill="#2C3A64"/>
<path d="M676.127 254.964C676.127 254.964 694.823 250.422 702.954 257.132L698.891 313.827L662.324 304.988C662.324 304.988 663.352 301.4 670.366 291.861C677.379 282.322 674.327 268.329 676.127 254.964Z" fill="#FFB27D"/>
<path d="M687.026 307.516L686.966 308.073C686.95 308.231 686.929 308.422 686.906 308.644C686.749 310.114 686.444 312.932 686.065 316.598C685.062 326.213 683.489 341.658 682.415 353.847C681.576 363.379 681.043 370.921 681.332 372.132C682.196 375.777 681.332 419.348 681.332 419.348C678.222 420.838 673.512 419.348 673.512 419.348C673.512 419.348 665.232 380.083 666.392 374.626C667.064 371.247 666.796 367.748 665.616 364.511C659.187 334.56 659.891 317.962 661.169 310.006C661.416 308.363 661.783 306.741 662.268 305.152C662.389 304.745 662.537 304.347 662.71 303.959C676.887 300.152 687.026 307.516 687.026 307.516Z" fill="#2B478B"/>
<path d="M705.475 273.303C704.572 280.124 700.961 288.468 699.672 292.95C699.672 292.95 701.827 308.547 699.769 312.828C699.603 313.251 699.292 313.6 698.891 313.813C691.268 317.134 661.573 313.907 660.312 304.336C659.85 300.853 671.632 288.604 672.308 287.118C672.593 286.503 672.898 284.511 671.516 280.38C669.562 286.413 658.769 284.677 658.769 284.677C660.037 282.509 663.193 267.506 666.716 260.733C669.365 255.648 676.439 254.906 676.439 254.906C676.439 254.906 679.382 259.578 686.502 258.914C693.622 258.251 694.922 253.891 694.922 253.891C694.922 253.891 701.238 254.733 703.183 256.302C703.527 256.577 706.658 264.367 705.475 273.303Z" fill="#F99746"/>
<path d="M699.672 292.961C699.672 292.961 701.827 308.559 699.769 312.84C694.224 310.05 686.973 304.028 689.177 294.619C692.379 280.947 705.475 273.3 705.475 273.3C704.571 280.124 700.961 288.468 699.672 292.961Z" fill="#ED7D2B"/>
<path d="M676.483 274.516L689.214 294.954H667.552L655.421 274.96L676.483 274.516Z" fill="#1C468A"/>
<path d="M688.553 293.928L688.773 293.213L676.723 273.874L676.483 274.516L688.553 293.928Z" fill="#EFDECE"/>
<path d="M676.723 273.874L656.315 274.456L655.421 274.96L676.483 274.516L676.723 273.874Z" fill="#FCECDB"/>
<path d="M655.421 274.96L643.972 268.758L657.318 289.728L667.552 294.954L655.421 274.96Z" fill="#163560"/>
<path d="M716.016 289.282C714.791 289.841 711.643 293.551 710.52 293.928C705.468 295.62 683.97 291.119 683.97 291.119L684.635 287.352C684.635 287.352 705.736 287.911 708.055 287.291C708.492 287.174 710.772 283.593 711.65 283.092L716.016 289.282Z" fill="#FFB27D"/>
<path d="M684.626 287.354C684.626 287.354 682.085 285.274 680.361 285.752C678.638 286.23 676.111 288.396 675.173 288.912C674.235 289.427 671.68 291.269 672.974 292.379C674.267 293.488 678.287 292.536 679.89 291.685C681.493 290.835 683.958 291.124 683.958 291.124L684.626 287.354Z" fill="#FFB27D"/>
<path d="M680.849 285.678C680.849 285.678 677.756 285.311 676.922 285.327C676.088 285.343 676.307 285.53 676.774 286.184C677.24 286.838 678.853 287.09 678.924 287.322C678.996 287.553 680.849 285.678 680.849 285.678Z" fill="#FFB27D"/>
<path d="M694.929 253.894C694.929 253.894 704.1 254.994 706.625 258.923C709.818 263.9 717.353 283.713 717.111 288.706C717.111 288.706 711.601 298.088 692.711 296.586C692.711 296.586 690.745 289.651 694.719 287.34C694.719 287.34 704.421 285.613 705.539 284.629L702.305 271.151L694.929 253.894Z" fill="#F99746"/>
<path d="M658.353 282.431C658.069 281.275 655.551 281.996 654.701 282.662C654.45 282.882 654.233 283.137 654.056 283.42C654.028 283.228 654.005 283.041 653.994 282.897C653.945 282.354 653.315 281.381 653.157 282.109C653 282.837 652.742 285.898 652.742 285.898C652.712 288.364 654.294 289.379 655.31 288.577C656.327 287.775 658.639 283.586 658.353 282.431Z" fill="#FFB27D"/>
</svg>
