<svg width="252" height="60" viewBox="0 0 252 60" fill="none" xmlns="http://www.w3.org/2000/svg">
<path d="M7.58984 26.64V33.24C7.58984 38.56 7.96984 42.48 8.72984 45C7.60984 45.4 6.36984 45.6 5.00984 45.6C3.52984 45.6 2.50984 45.34 1.94984 44.82C1.42984 44.3 1.16984 43.42 1.16984 42.18C1.16984 41.54 1.18984 39.96 1.22984 37.44C1.26984 34.92 1.28984 32.96 1.28984 31.56V19.08C1.28984 13.56 1.00984 9.06 0.449844 5.58C4.80984 5.22 9.26984 5.04 13.8298 5.04C19.7498 5.04 23.0898 5.34 23.8498 5.94C24.2098 6.3 24.3898 6.94 24.3898 7.86C24.3898 9.06 24.2298 10.14 23.9098 11.1C21.7098 10.26 18.2298 9.84 13.4698 9.84C11.5498 9.84 9.50984 9.9 7.34984 10.02C7.50984 11.26 7.58984 13.94 7.58984 18.06V21.9H12.0898C15.2898 21.9 17.5698 21.82 18.9298 21.66C19.0898 22.02 19.1698 22.66 19.1698 23.58C19.1698 24.7 18.9698 25.48 18.5698 25.92C18.1698 26.32 17.5298 26.54 16.6498 26.58C15.6498 26.62 14.3098 26.64 12.6298 26.64H7.58984ZM44.4003 31.5C44.4003 28.3 43.7203 25.64 42.3603 23.52C41.0403 21.36 39.2403 20.28 36.9603 20.28C34.6403 20.28 32.8403 21.16 31.5603 22.92C30.2803 24.68 29.6403 27.02 29.6403 29.94C29.6403 33.18 30.2803 35.86 31.5603 37.98C32.8803 40.1 34.6803 41.16 36.9603 41.16C39.3203 41.16 41.1403 40.28 42.4203 38.52C43.7403 36.76 44.4003 34.42 44.4003 31.5ZM36.9603 45.6C32.8003 45.6 29.4403 44.26 26.8803 41.58C24.3603 38.86 23.1003 35.24 23.1003 30.72C23.1003 26.2 24.3603 22.6 26.8803 19.92C29.4403 17.24 32.8003 15.9 36.9603 15.9C41.1603 15.9 44.5403 17.24 47.1003 19.92C49.6603 22.6 50.9403 26.2 50.9403 30.72C50.9403 35.24 49.6603 38.86 47.1003 41.58C44.5403 44.26 41.1603 45.6 36.9603 45.6ZM71.7627 43.8C70.4027 42.12 68.4027 39.08 65.7627 34.68C62.3627 39.72 60.4627 43.36 60.0627 45.6C56.3427 45.6 54.4827 44.8 54.4827 43.2C54.4827 42.04 55.5227 40.12 57.6027 37.44C59.6827 34.76 61.7627 32.42 63.8427 30.42C59.3627 23.82 56.2427 19.94 54.4827 18.78C56.3227 16.86 57.8427 15.9 59.0427 15.9C60.4827 15.9 61.6227 16.46 62.4627 17.58C63.4227 18.82 65.0827 21.44 67.4427 25.44C69.9627 21.04 71.3627 17.84 71.6427 15.84C75.4427 15.92 77.3427 16.72 77.3427 18.24C77.3427 19.2 76.5027 20.88 74.8227 23.28C73.1827 25.64 71.4027 27.8 69.4827 29.76C71.5227 32.92 73.5027 35.78 75.4227 38.34C77.3827 40.86 78.8427 42.46 79.8027 43.14C78.2027 44.78 76.5827 45.6 74.9427 45.6C73.7827 45.6 72.7227 45 71.7627 43.8ZM84.3659 31.56V19.14C84.3659 13.5 84.2259 8.86 83.9459 5.22C84.8659 5.1 85.9659 5.04 87.2459 5.04C89.8459 5.04 91.1459 5.8 91.1459 7.32C91.1459 7.56 91.1059 8.38 91.0259 9.78C90.9459 11.14 90.8659 12.86 90.7859 14.94C90.7059 16.98 90.6659 18.92 90.6659 20.76V25.92C90.6659 33.84 90.8059 38.64 91.0859 40.32C92.6859 40.4 93.9659 40.44 94.9259 40.44C100.806 40.44 104.606 39.98 106.326 39.06C106.766 39.94 106.986 40.92 106.986 42C106.986 43.32 106.466 44.18 105.426 44.58C104.426 44.94 102.746 45.12 100.386 45.12H95.1659C91.6059 45.12 88.9459 45.08 87.1859 45C86.0659 44.96 85.2859 44.68 84.8459 44.16C84.4459 43.64 84.2459 42.78 84.2459 41.58C84.2459 40.94 84.2659 39.46 84.3059 37.14C84.3459 34.82 84.3659 32.96 84.3659 31.56ZM113.972 16.32C116.852 16.32 118.292 17.38 118.292 19.5C118.292 19.74 118.232 20.56 118.112 21.96C117.992 23.32 117.872 25.02 117.752 27.06C117.672 29.1 117.632 31.04 117.632 32.88C117.632 38.24 118.152 42.14 119.192 44.58C118.192 45.02 117.052 45.24 115.772 45.24C114.012 45.24 112.812 44.88 112.172 44.16C111.572 43.44 111.272 42.22 111.272 40.5C111.272 39.86 111.292 38.32 111.332 35.88C111.372 33.4 111.392 31.5 111.392 30.18C111.392 24.38 111.212 19.84 110.852 16.56C111.812 16.4 112.852 16.32 113.972 16.32ZM114.272 13.8C113.072 13.8 112.052 13.4 111.212 12.6C110.372 11.8 109.952 10.78 109.952 9.54C109.952 8.34 110.392 7.34 111.272 6.54C112.152 5.7 113.192 5.28 114.392 5.28C115.552 5.28 116.552 5.7 117.392 6.54C118.232 7.34 118.652 8.34 118.652 9.54C118.652 10.74 118.212 11.76 117.332 12.6C116.452 13.4 115.432 13.8 114.272 13.8ZM144.753 30.12C144.753 26.8 144.153 24.34 142.953 22.74C141.793 21.1 140.333 20.28 138.573 20.28C136.253 20.28 134.093 21.28 132.093 23.28C132.133 25.68 132.153 28.34 132.153 31.26C132.153 33.98 132.093 36.32 131.973 38.28C133.893 40.2 136.013 41.16 138.333 41.16C140.493 41.16 142.093 40.08 143.133 37.92C144.213 35.76 144.753 33.16 144.753 30.12ZM140.733 15.9C143.853 15.9 146.393 17.08 148.353 19.44C150.313 21.76 151.293 25.26 151.293 29.94C151.293 34.34 150.133 38.06 147.813 41.1C145.493 44.1 142.153 45.6 137.793 45.6C133.033 45.6 128.953 44.2 125.553 41.4C125.833 39.04 125.973 34.78 125.973 28.62C125.973 25.06 125.873 19.9 125.673 13.14C125.473 6.34 125.253 2.18 125.013 0.659999C125.773 0.499998 126.833 0.419998 128.193 0.419998C130.993 0.419998 132.393 1.5 132.393 3.66C132.393 4.14 132.333 5.88 132.213 8.88C132.093 11.88 132.033 15.26 132.033 19.02C134.593 16.94 137.493 15.9 140.733 15.9ZM159.481 16.32C160.921 16.32 161.941 16.58 162.541 17.1C163.181 17.62 163.501 18.44 163.501 19.56V20.28C165.821 17.36 168.081 15.9 170.281 15.9C172.601 15.9 173.761 16.74 173.761 18.42C173.761 19.54 173.041 21 171.601 22.8C170.761 22.08 169.821 21.72 168.781 21.72C166.741 21.72 164.901 22.82 163.261 25.02C163.141 27.58 163.081 30.18 163.081 32.82C163.081 38.06 163.621 41.94 164.701 44.46C163.621 44.98 162.441 45.24 161.161 45.24C159.441 45.24 158.281 44.86 157.681 44.1C157.081 43.34 156.781 42.12 156.781 40.44C156.781 39.96 156.801 38.6 156.841 36.36C156.881 34.12 156.901 32.36 156.901 31.08C156.901 24.4 156.721 19.58 156.361 16.62C157.521 16.42 158.561 16.32 159.481 16.32ZM192.985 36.42C192.985 34.58 193.025 33.16 193.105 32.16C191.905 32.32 191.025 32.44 190.465 32.52C189.945 32.6 189.225 32.72 188.305 32.88C187.385 33.04 186.705 33.22 186.265 33.42C185.865 33.62 185.425 33.86 184.945 34.14C184.465 34.42 184.125 34.78 183.925 35.22C183.725 35.62 183.625 36.1 183.625 36.66C183.625 38.26 184.025 39.44 184.825 40.2C185.625 40.96 186.645 41.34 187.885 41.34C189.925 41.34 191.665 40.58 193.105 39.06C193.025 38.54 192.985 37.66 192.985 36.42ZM193.225 28.5C193.225 27.14 193.185 26.1 193.105 25.38C193.065 24.66 192.905 23.84 192.625 22.92C192.385 22 191.945 21.34 191.305 20.94C190.705 20.5 189.885 20.28 188.845 20.28C187.525 20.28 186.265 20.72 185.065 21.6C183.905 22.44 183.065 23.62 182.545 25.14C178.985 25.1 177.205 24.04 177.205 21.96C177.205 20.24 178.405 18.8 180.805 17.64C183.245 16.48 186.005 15.9 189.085 15.9C192.765 15.9 195.445 16.66 197.125 18.18C198.845 19.7 199.705 22.42 199.705 26.34C199.705 26.46 199.685 27.4 199.645 29.16C199.605 30.92 199.585 32.64 199.585 34.32C199.585 38.88 199.965 42.3 200.725 44.58C199.565 45.02 198.425 45.24 197.305 45.24C195.065 45.24 193.725 44.32 193.285 42.48C190.885 44.56 188.185 45.6 185.185 45.6C182.865 45.6 180.925 44.88 179.365 43.44C177.845 42 177.085 39.88 177.085 37.08C177.085 34.84 177.565 33.18 178.525 32.1C179.485 31.02 180.765 30.22 182.365 29.7C184.765 28.94 188.385 28.54 193.225 28.5ZM209.637 16.32C211.077 16.32 212.097 16.58 212.697 17.1C213.337 17.62 213.657 18.44 213.657 19.56V20.28C215.977 17.36 218.237 15.9 220.437 15.9C222.757 15.9 223.917 16.74 223.917 18.42C223.917 19.54 223.197 21 221.757 22.8C220.917 22.08 219.977 21.72 218.937 21.72C216.897 21.72 215.057 22.82 213.417 25.02C213.297 27.58 213.237 30.18 213.237 32.82C213.237 38.06 213.777 41.94 214.857 44.46C213.777 44.98 212.597 45.24 211.317 45.24C209.597 45.24 208.437 44.86 207.837 44.1C207.237 43.34 206.937 42.12 206.937 40.44C206.937 39.96 206.957 38.6 206.997 36.36C207.037 34.12 207.057 32.36 207.057 31.08C207.057 24.4 206.877 19.58 206.517 16.62C207.677 16.42 208.717 16.32 209.637 16.32ZM231.141 60C230.341 60 229.561 59.7 228.801 59.1C228.081 58.5 227.481 57.74 227.001 56.82C228.121 56.06 229.581 54.64 231.381 52.56C233.181 50.48 234.901 48.08 236.541 45.36C235.061 40.44 233.141 35.08 230.781 29.28C228.461 23.48 226.521 19.8 224.961 18.24C226.921 16.88 228.501 16.2 229.701 16.2C231.221 16.2 232.301 16.88 232.941 18.24C233.821 20.08 235.041 22.94 236.601 26.82C238.161 30.66 239.461 34.28 240.501 37.68C241.861 34.32 242.981 30.78 243.861 27.06C244.741 23.34 245.181 20.34 245.181 18.06C245.181 17.34 245.141 16.74 245.061 16.26C245.981 16.02 247.001 15.9 248.121 15.9C250.281 15.9 251.361 16.74 251.361 18.42C251.361 20.26 250.641 23.44 249.201 27.96C247.761 32.48 246.061 36.86 244.101 41.1C240.501 48.9 237.201 54.66 234.201 58.38C233.321 59.46 232.301 60 231.141 60Z" fill="#FF5D4F"/>
</svg>
